<?xml version="1.0" encoding="utf-8"?>
<!-- Generator: Adobe Illustrator 25.3.0, SVG Export Plug-In . SVG Version: 6.00 Build 0)  -->
<svg

width="149px" height="17px" viewBox="0 0 425.1 150.4"

 version="1.1" id="Layer_1" xmlns="http://www.w3.org/2000/svg" xmlns:xlink="http://www.w3.org/1999/xlink" x="0px" y="0px"
	 style="enable-background:new 0 0 425.1 150.4;" xml:space="preserve">
<style type="text/css">
	.st0{fill:#60C5F8;}
	.st1{fill:#53241B;}
	.st2{fill-rule:evenodd;clip-rule:evenodd;fill:#FFFFFF;}
</style>
<g>
	<path class="st0" d="M425.1,150.3l-26-92.4l0,0C388.5,21.4,353.8,0,321.7,0H0l25.6,92.6v0.1c10.7,36.8,45.4,57.4,75.6,57.7
		L425.1,150.3z M47.8,86.4C47.7,86.2,35.6,42.3,30.3,23c27.4,0,291.4,0,291.4,0c21.7,0,47.5,14.6,55.2,41.2
		c0.1,0.3,15.5,56,17.5,63.2c-27.4,0-292.4,0-292.4,0C80,127.4,55.3,112.1,47.8,86.4z"/>
	<path class="st1" d="M47.8,86.4C47.7,86.2,35.6,42.3,30.3,23c27.4,0,291.4,0,291.4,0c21.7,0,47.5,14.6,55.2,41.2
		c0.1,0.3,15.5,56,17.5,63.2c-27.4,0-292.4,0-292.4,0C80,127.4,55.3,112.1,47.8,86.4z"/>
	<g>
		<path class="st2" d="M94.5,107.1h10.2v-43h11.9v-7.8h-11.9v-6.7c0-3.1,1.1-4.2,4.4-4.2h7.5v-9.6h-8.3c-7.9,0-13.8,4.3-13.8,13.8
			v6.7H82.8l2.2,7.8h9.5L94.5,107.1L94.5,107.1z"/>
		<path class="st2" d="M129.5,90.1c0,11.5,9,17.6,17,17.6c5.3,0,9.9-2,13.1-6h0.2v5.4h10.2V56.4h-10.2v30.2c0,6.9-4.3,10.9-10,10.9
			c-5.8,0-10.1-4-10.1-10.9V56.4h-10.2L129.5,90.1L129.5,90.1z"/>
		<path class="st2" d="M188.1,107.1h10.2V76.9c0-6.9,4.3-10.9,10.1-10.9c5.7,0,10,4,10,10.9v30.2h10.2V73.4c0-11.5-9-17.6-16.9-17.6
			c-5.4,0-10,2-13.2,6h-0.2v-5.4h-10.2V107.1z"/>
		<path class="st2" d="M274,107.1h10.2V35.8H274v25.9c-3.8-3.6-7.9-6-13.1-6c-6.2,0-10.7,2.8-13.6,6.6c-2.8,3.6-3.6,6.9-3.6,19.3
			c0,12.5,0.8,15.8,3.6,19.4c2.9,3.8,7.4,6.6,13.6,6.6c5.2,0,9.9-2.4,13.1-5.9V107.1z M264,66c9.5,0,10,8.4,10,15.7
			c0,7.4-0.5,15.8-10,15.8c-9.6,0-10.1-7.9-10.1-15.8C253.9,73.9,254.4,66,264,66z"/>
		<path class="st2" d="M328.7,107.1h10.2V72.5c0-12.5-8.6-16.7-21.1-16.7c-7.6,0-13.2,2-17.1,7.4l8,6.1c1.8-2.9,4.3-3.9,9.6-3.9
			c7.3,0,10.4,1.7,10.4,6.5v5.3h-14.1c-10.9,0-16.5,6.9-16.5,15c0,8.8,6.6,15.5,17.9,15.5c6.9,0,10.4-1.6,12.5-5.1h0.2L328.7,107.1
			L328.7,107.1z M328.7,89.3c0,7.9-2.9,8.8-11.4,8.8c-6.9,0-9.6-3-9.6-6.4c0-3.7,2.8-6.1,8.8-6.1h12.2V89.3z"/>
	</g>
</g>
</svg>
